<?xml version="1.0" encoding="UTF-8" standalone="no"?>
<svg width="159px" height="76px" viewBox="0 0 159 76" version="1.1" xmlns="http://www.w3.org/2000/svg" xmlns:xlink="http://www.w3.org/1999/xlink" xmlns:sketch="http://www.bohemiancoding.com/sketch/ns">
    <!-- Generator: Sketch 3.0.2 (7799) - http://www.bohemiancoding.com/sketch -->
    <title>Logo + Where clean finds yo</title>
    <description>Created with Sketch.</description>
    <defs></defs>
    <g id="Page-1" stroke="none" stroke-width="1" fill="none" fill-rule="evenodd" sketch:type="MSPage">
        <g id="Desktop" sketch:type="MSArtboardGroup" transform="translate(-38.000000, -28.000000)">
            <g id="Logo-+-Where-clean-finds-yo" sketch:type="MSLayerGroup" transform="translate(40.000000, 28.000000)">
                <g id="Logo" fill="#EF546D" sketch:type="MSShapeGroup">
                    <path d="M54.2199202,48.4307027 C54.3148429,48.433427 54.4101546,48.4345946 54.5062444,48.4345946 L56.25998,48.4345946 L58.0141047,48.4345946 L58.0495062,48.4345946 L58.0849077,48.4365405 C60.1339152,48.5443459 61.4410474,49.7769081 61.4410474,51.8633514 C61.4410474,53.8614486 60.1930474,55.0691027 58.2350723,55.232173 L58.2132868,55.2341189 L58.1911122,55.2352865 C56.9711222,55.2963892 55.7274015,55.2913297 54.5062444,55.2913297 C54.4105436,55.2913297 54.3148429,55.2905514 54.2199202,55.2889946 L54.2199202,48.4307027 L54.2199202,48.4307027 Z M54.2199202,24.5843027 C54.3148429,24.5827459 54.4105436,24.5815784 54.5062444,24.5815784 C57.5935661,24.5815784 60.4389127,25.4521946 63.0076608,27.1657946 C65.5919701,28.8891243 67.4888678,31.2071351 68.6847382,34.0781838 C69.1632419,35.244973 69.661197,36.6624 69.7164389,37.9319351 L69.717606,37.9607351 L69.717606,37.9899243 L69.717606,42.1577514 L69.717606,43.5024 L54.2199202,43.5024 L54.2199202,36.6452757 L61.8911521,36.6452757 C61.4196509,35.3558919 60.7003392,34.1992216 59.6733067,33.2161297 C58.2191222,31.8921081 56.5256858,31.2740757 54.5610973,31.2740757 C54.4463342,31.2740757 54.3327382,31.2764108 54.2199202,31.2806919 L54.2199202,24.5843027 L54.2199202,24.5843027 Z M46.6646185,43.5024 C47.2073117,44.7022703 48.0223242,45.7277838 49.1158803,46.584 C50.6264738,47.7745297 52.3187431,48.3762162 54.2199202,48.4307027 L54.2199202,55.2889946 C50.1110125,55.2224432 46.558414,53.7100541 43.6348728,50.7852973 C40.6436409,47.7932108 39.1303242,44.1414486 39.1303242,39.9094054 C39.1303242,35.6944865 40.6568678,32.0672432 43.6348728,29.088 C46.558414,26.1640216 50.1110125,24.6512432 54.2199202,24.5843027 L54.2199202,31.2806919 C52.2915112,31.3488 50.5945736,32.0022486 49.083591,33.2441514 C47.9250673,34.1964973 47.0828229,35.3255351 46.5486883,36.6452757 L54.2199202,36.6452757 L54.2199202,43.5024 L46.6646185,43.5024 L46.6646185,43.5024 Z" id="Fill-1"></path>
                    <path d="M134.507401,54.6892541 C131.382733,54.3751784 127.132219,52.3432216 124.458434,49.2627892 C121.518554,45.8745081 120.25616,41.7942486 120.25616,37.3321946 L120.25616,32.7261405 L120.25616,28.1749622 C120.25616,27.2416865 120.621845,26.4189405 121.319372,25.798573 C121.964379,25.2252973 122.735042,24.9108324 123.601406,24.9108324 C124.507062,24.9108324 125.323631,25.2361946 125.959302,25.8721297 C126.610923,26.5088432 126.945875,27.3191351 126.945875,28.2294486 L126.945875,37.3321946 C126.945875,40.3690378 127.761666,43.1392865 129.926993,45.323027 C132.101267,47.5161081 134.891372,48.3248432 137.934344,48.3248432 C140.963701,48.3248432 143.722294,47.5063784 145.887621,45.3319784 C148.050224,43.150573 148.86796,40.3939459 148.86796,37.3594378 L148.86796,28.2204973 C148.86796,27.3051243 149.225865,26.4901622 149.887212,25.8585081 C150.521716,25.2521514 151.305606,24.9108324 152.185197,24.9108324 C153.087352,24.9108324 153.89614,25.2420324 154.533756,25.8803027 C155.171372,26.518573 155.503212,27.3276973 155.503212,28.2294486 L155.503212,37.3687784 C155.503212,41.8452324 154.210474,45.9180973 151.251531,49.3032649 C148.569187,52.3712432 144.296888,54.3845189 141.206454,54.6892541 C138.115242,54.9936 137.631681,55.0033297 134.507401,54.6892541" id="Fill-2"></path>
                    <path id="Fill-3" d="M109.797935,14.0154811 C110.256599,13.7878054 110.761945,13.6698811 111.29997,13.6698811 C111.830214,13.6698811 112.324279,13.7905297 112.773217,14.0154811 L109.797935,14.0154811"></path>
                    <path d="M79.8397107,40.457773 L79.8397107,40.4959135 L79.8397107,40.6231784 L79.8397107,41.1466378 L79.8397107,43.2681081 L79.8397107,47.5616432 C78.9352219,46.8373622 77.7887581,46.4038054 76.5407581,46.4038054 C75.1978354,46.4038054 73.972399,46.9062486 73.0399002,47.7324973 L73.0399002,40.4032865 C73.0399002,36.2066595 74.5353217,32.5840865 77.4962095,29.6122378 C80.4695461,26.6178162 84.1178454,25.1299459 88.3341247,25.1299459 C92.551182,25.1299459 96.1870324,26.6532324 99.1673716,29.6355892 C102.153546,32.6128865 103.682813,36.236627 103.682813,40.4527135 L103.710434,46.2426811 L103.737277,46.2426811 L103.737277,55.2368432 L96.9378554,55.2368432 L96.9378554,40.457773 C96.9378554,38.0681514 96.1154514,36.0576 94.4383541,34.3556757 C92.7721496,32.6650378 90.7904439,31.8228324 88.4162095,31.8228324 C86.0244688,31.8228324 84.0190324,32.6514162 82.3388229,34.3556757 C80.6617257,36.0576 79.8397107,38.0681514 79.8397107,40.457773" id="Fill-4"></path>
                    <path d="M36.8206683,51.9731027 C36.8206683,52.9328432 36.4149127,53.7641514 35.6792618,54.3771243 C35.0081895,54.9363892 34.2126284,55.2368432 33.3388728,55.2368432 C32.4017057,55.2368432 31.5789127,54.8593297 30.9479102,54.1685189 C30.3456958,53.5080649 30.0212469,52.7028324 30.0212469,51.8084757 L30.0212469,16.9340108 C30.0212469,16.0310919 30.3896559,15.2383135 31.0404988,14.6175568 C31.6893965,13.9975784 32.4958504,13.6698811 33.3933367,13.6698811 C34.3223342,13.6698811 35.1416259,14.0392216 35.7963591,14.694227 C36.4510923,15.3492324 36.8206683,16.1692541 36.8206683,17.0986378 L36.8206683,51.9731027" id="Fill-5"></path>
                    <path d="M76.5411471,41.1801081 C82.3415461,41.1801081 87.0456658,45.8861838 87.0456658,51.6893838 C87.0456658,57.4925838 82.3415461,62.1982703 76.5411471,62.1982703 L76.5411471,56.974573 C79.4580748,56.974573 81.8237506,54.6071351 81.8237506,51.6893838 C81.8237506,48.7712432 79.4580748,46.4038054 76.5411471,46.4038054 L76.5411471,41.1801081 L76.5411471,41.1801081 Z M76.5407581,41.1801081 L76.5411471,41.1801081 L76.5411471,46.4038054 L76.5407581,46.4038054 C73.6234414,46.4038054 71.2577656,48.7712432 71.2577656,51.6893838 C71.2577656,54.6079135 73.6234414,56.974573 76.5407581,56.974573 L76.5411471,56.974573 L76.5411471,62.1982703 L76.5407581,62.1982703 C70.7399701,62.1982703 66.0358504,57.4925838 66.0358504,51.6893838 C66.0358504,45.8861838 70.7399701,41.1801081 76.5407581,41.1801081 L76.5407581,41.1801081 Z" id="Fill-6"></path>
                    <path d="M76.5411471,54.0864 C77.8607282,54.0864 78.9367781,53.0091243 78.9367781,51.6893838 C78.9367781,50.3688649 77.8607282,49.2919784 76.5411471,49.2919784 C75.2211771,49.2919784 74.1451272,50.3688649 74.1451272,51.6893838 C74.1451272,53.0091243 75.2211771,54.0864 76.5411471,54.0864" id="Fill-7"></path>
                    <path d="M104.682224,7.50629189 C107.685127,8.82136216 109.796768,11.8259027 109.796768,15.3005838 C109.796768,28.1691243 109.658274,41.8191568 109.592918,55.2368432 L116.5639,55.2368432 L116.5639,17.7100541 L116.562344,17.7100541 L116.5639,15.3005838 C116.5639,15.2254703 116.561955,15.1507459 116.560788,15.0752432 C116.440579,10.5022703 112.664289,6.79874595 108.065596,6.79874595 C106.864668,6.79874595 105.72015,7.05171892 104.682224,7.50629189" id="Fill-8"></path>
                    <path d="M101.299242,0.0291891892 L101.299242,0.0291891892 C92.9028628,0.0291891892 86.0338055,6.90227027 86.0338055,15.3005838 L86.0338055,20.4336 L92.8005486,20.4336 L92.8005486,15.3005838 C92.8005486,15.2215784 92.8017157,15.1433514 92.8040499,15.0651243 C92.9129776,7.93128649 97.9746135,1.944 104.682613,0.410594595 C103.593337,0.161124324 102.460489,0.0291891892 101.299242,0.0291891892" id="Fill-9"></path>
                    <path d="M120.588,52.6502919 L120.588,55.2368432 L105.750494,55.2368432 L105.750494,52.6502919 C105.750494,50.7794595 107.280539,49.2491676 109.150204,49.2491676 L117.188289,49.2491676 C119.058344,49.2491676 120.588,50.7794595 120.588,52.6502919" id="Fill-10"></path>
                    <path d="M103.737277,52.6502919 L103.737277,55.2368432 L91.4747431,55.2368432 L91.4747431,52.6502919 C91.4747431,50.7794595 93.004399,49.2491676 94.8740648,49.2491676 L100.337955,49.2491676 C102.20801,49.2491676 103.737277,50.7794595 103.737277,52.6502919" id="Fill-11"></path>
                    <path d="M130.051092,70.2696649 C123.844938,68.3638054 126.719072,60.3644108 131.485825,63.4938811 C133.370663,64.7315027 135.576838,65.2176 137.934344,65.2176 C140.963701,65.2176 143.722294,64.3987459 145.887621,62.2243459 C148.050224,60.0433297 148.86796,57.2867027 148.86796,54.2521946 L148.86796,34.0509405 C148.86796,33.1355676 149.225865,32.3202162 149.887212,31.6889514 C150.521716,31.0825946 151.305606,30.7408865 152.185197,30.7408865 C153.087352,30.7408865 153.89614,31.0724757 154.533756,31.7107459 C155.171372,32.348627 155.503212,33.1577514 155.503212,34.0602811 L155.503212,54.2615351 C155.503212,58.7376 154.210474,62.8108541 151.251531,66.1960216 C148.569187,69.264 144.296888,71.2776649 141.206454,71.5820108 C136.922873,72.0038919 134.050683,71.4975568 130.051092,70.2696649" id="Fill-12"></path>
                    <path d="M6.73328678,51.9731027 C6.73328678,52.9328432 6.32753117,53.7641514 5.5918803,54.3771243 C4.92119701,54.9363892 4.12563591,55.2368432 3.25149127,55.2368432 C2.31432419,55.2368432 1.4919202,54.8593297 0.860917706,54.1685189 C0.258703242,53.5080649 -0.0657456359,52.7028324 -0.0657456359,51.8084757 L-0.0657456359,16.9340108 C-0.0657456359,16.0310919 0.302274314,15.2383135 0.953117207,14.6175568 C1.60201496,13.9975784 2.40846883,13.6698811 3.30634414,13.6698811 C4.23495262,13.6698811 5.05424439,14.0392216 5.70897756,14.694227 C6.36371072,15.3492324 6.73328678,16.1692541 6.73328678,17.0986378 L6.73328678,51.9731027" id="Fill-13"></path>
                    <path d="M6.17697756,42.5232 C5.36702244,43.0369297 4.44813965,43.1400649 3.53664838,42.8470054 C2.70490773,42.5796324 2.02527681,42.068627 1.55688778,41.3299459 C1.05504239,40.5387243 0.932887781,39.6412541 1.17797506,38.7383351 C1.4125586,37.8762811 1.91907232,37.1714595 2.67339651,36.6912 L21.0895661,24.9664865 C21.8508928,24.4819459 22.7176459,24.3694703 23.5906234,24.5862486 C24.4616559,24.8026378 25.1700748,25.3081946 25.6509127,26.0667243 C26.1484788,26.8509405 26.2756908,27.7414054 26.0737855,28.6451027 C25.8718803,29.5488 25.3762594,30.2995459 24.5931471,30.7984865 L6.17697756,42.5232" id="Fill-14"></path>
                    <path d="M11.2958005,40.1487568 C10.4426633,39.7097514 9.88907731,38.9683459 9.68094763,38.0339027 C9.49071322,37.1811892 9.58758105,36.3354811 9.98711222,35.5578811 C10.4158204,34.724627 11.1277406,34.164973 12.0306733,33.920173 C12.8923691,33.6866595 13.7528978,33.7738378 14.5519601,34.1754811 L26.8833516,48.5065946 C27.4719501,49.1907892 28.221606,49.9228541 28.4760299,50.7856865 C28.7304539,51.646573 28.6526484,52.5140757 28.2422244,53.3126919 C27.8170175,54.1385514 27.1136559,54.6989838 26.2325087,54.9819243 C25.3509726,55.2644757 24.4569875,55.2092108 23.626803,54.7931676 L11.2958005,40.1487568" id="Fill-15"></path>
                </g>
                <text id="Where-clean-finds-yo" sketch:type="MSTextLayer" font-family="Helvetica" font-size="11" font-weight="260" fill="#868686">
                    <tspan x="0" y="73">Where clean finds you!</tspan>
                </text>
            </g>
        </g>
    </g>
</svg>