<?xml version="1.0" encoding="UTF-8" standalone="no"?>
<svg width="107px" height="49px" viewBox="0 0 107 49" version="1.1" xmlns="http://www.w3.org/2000/svg" xmlns:xlink="http://www.w3.org/1999/xlink" xmlns:sketch="http://www.bohemiancoding.com/sketch/ns">
    <!-- Generator: Sketch 3.0.2 (7799) - http://www.bohemiancoding.com/sketch -->
    <title>Imported Layers</title>
    <description>Created with Sketch.</description>
    <defs></defs>
    <g id="Page-1" stroke="none" stroke-width="1" fill="none" fill-rule="evenodd" sketch:type="MSPage">
        <g id="Desktop" sketch:type="MSArtboardGroup" transform="translate(-483.000000, -846.000000)" fill="#FFFFFF">
            <g id="Group" sketch:type="MSLayerGroup" transform="translate(0.000000, 831.000000)">
                <g id="Rectangle-8-+-legal" sketch:type="MSShapeGroup">
                    <g id="legal" transform="translate(438.000000, 15.000000)">
                        <g id="Imported-Layers" transform="translate(46.000000, 0.000000)">
                            <path d="M36.8417406,33.0445405 C36.9062394,33.0466595 36.9710025,33.0474541 37.0362943,33.0474541 L38.2279352,33.0474541 L39.4198404,33.0474541 L39.4438953,33.0474541 L39.4679501,33.0485135 C40.8602244,33.1221459 41.748404,33.960973 41.748404,35.3806486 C41.748404,36.7404649 40.900404,37.5623405 39.569985,37.6733189 L39.555182,37.6746432 L39.5401147,37.6754378 C38.7111471,37.7170216 37.8660549,37.7138432 37.0362943,37.7138432 C36.9712668,37.7138432 36.9062394,37.7133135 36.8417406,37.7122541 L36.8417406,33.0445405 L36.8417406,33.0445405 Z M36.8417406,16.8157405 C36.9062394,16.8146811 36.9712668,16.8138865 37.0362943,16.8138865 C39.1340898,16.8138865 41.0674663,17.4063892 42.8128978,18.5725892 C44.5689027,19.7454108 45.8578204,21.3229459 46.670399,23.2771189 C46.9955362,24.0709189 47.3338903,25.0358216 47.3714264,25.8995459 L47.3722195,25.9191459 L47.3722195,25.9392757 L47.3722195,28.7757135 L47.3722195,29.6908216 L36.8417406,29.6908216 L36.8417406,25.0241676 L42.0542444,25.0241676 C41.7338653,24.1464054 41.2451022,23.359227 40.5472469,22.6901784 C39.5591471,21.789373 38.4084788,21.3687676 37.0735661,21.3687676 C36.995586,21.3687676 36.918399,21.3703568 36.8417406,21.3730054 L36.8417406,16.8157405 L36.8417406,16.8157405 Z M31.70801,29.6908216 C32.0767631,30.5074 32.6305536,31.2050541 33.373611,31.7880216 C34.4000399,32.5979784 35.5499152,33.0074595 36.8417406,33.0445405 L36.8417406,37.7122541 C34.0497905,37.6666973 31.6358454,36.6374324 29.6493367,34.6472378 C27.6168329,32.6106919 26.5885536,30.1254649 26.5885536,27.2453243 C26.5885536,24.3768378 27.6258204,21.9082973 29.6493367,19.8810216 C31.6358454,17.890827 34.0497905,16.8612973 36.8417406,16.8157405 L36.8417406,21.3730054 C35.5314115,21.4193568 34.3783641,21.8640649 33.3516708,22.7092486 C32.5644688,23.3576378 31.9921746,24.1257459 31.6292369,25.0241676 L36.8417406,25.0241676 L36.8417406,29.6908216 L31.70801,29.6908216 L31.70801,29.6908216 Z" id="Fill-1"></path>
                            <path d="M91.3960549,37.3038324 C89.2728828,37.0900865 86.3847132,35.7074919 84.5679102,33.6108216 C82.5702993,31.3049081 81.7125187,28.5280649 81.7125187,25.4913892 L81.7125187,22.3567135 L81.7125187,19.2593838 C81.7125187,18.6242378 81.9609975,18.0643135 82.4349576,17.6421189 C82.8732319,17.2522378 83.3968878,17.0379622 83.9855711,17.0379622 C84.6009526,17.0379622 85.1558005,17.2593892 85.5877307,17.6921784 C86.0304988,18.1257622 86.2580948,18.6772108 86.2580948,19.2967297 L86.2580948,25.4913892 C86.2580948,27.5581297 86.812414,29.4434378 88.2837257,30.9295946 C89.7611172,32.4221081 91.6569576,32.9724973 93.7246185,32.9724973 C95.7830274,32.9724973 97.6574564,32.4154865 99.1287681,30.9356865 C100.598229,29.4511189 101.15387,27.5750811 101.15387,25.5099297 L101.15387,19.290373 C101.15387,18.6676757 101.397062,18.1127838 101.846439,17.683173 C102.277576,17.2702486 102.810219,17.0379622 103.40789,17.0379622 C104.020893,17.0379622 104.570454,17.263627 105.003706,17.6977405 C105.436958,18.1321189 105.662439,18.682773 105.662439,19.2967297 L105.662439,25.5162865 C105.662439,28.5627622 104.78404,31.3348378 102.773476,33.6383676 C100.950858,35.7262973 98.0478853,37.0967081 95.9479751,37.3038324 C93.8475362,37.5109568 93.5189626,37.5175784 91.3960549,37.3038324" id="Fill-2"></path>
                            <path id="Fill-3" d="M74.6062893,9.62307027 C74.9179451,9.46812432 75.2613217,9.38787027 75.6269027,9.38787027 C75.987197,9.38787027 76.3229077,9.46997838 76.6279551,9.62307027 L74.6062893,9.62307027"></path>
                            <path d="M54.2500599,27.6185189 L54.2500599,27.6444757 L54.2500599,27.7310865 L54.2500599,28.0873297 L54.2500599,29.5311081 L54.2500599,32.4530973 C53.6354713,31.9601838 52.8564638,31.6653892 52.0084638,31.6653892 C51.0959651,31.6653892 50.2632968,32.0070649 49.6296758,32.569373 L49.6296758,27.5814378 C49.6296758,24.7256649 50.6457955,22.2600378 52.6576808,20.2375297 C54.6780249,18.1996595 57.1569975,17.1873459 60.0219052,17.1873459 C62.8873416,17.1873459 65.3578554,18.224027 67.3829576,20.2534216 C69.4120249,22.2796378 70.4511421,24.7460595 70.4511421,27.6153405 L70.4699102,31.5557351 L70.4881496,31.5557351 L70.4881496,37.6764973 L65.8680299,37.6764973 L65.8680299,27.6185189 C65.8680299,25.9922486 65.309217,24.6242216 64.1696509,23.4659676 C63.0374863,22.3151297 61.6909426,21.7419622 60.0776808,21.7419622 C58.4525237,21.7419622 57.0898554,22.3058595 55.9481746,23.4659676 C54.8086085,24.6242216 54.2500599,25.9922486 54.2500599,27.6185189" id="Fill-4"></path>
                            <path d="M25.0191721,35.4553405 C25.0191721,36.1084973 24.7434663,36.6742486 24.243601,37.0914108 C23.787616,37.4722865 23.2470424,37.6764973 22.6533367,37.6764973 C22.0165436,37.6764973 21.4574663,37.4195784 21.0287082,36.9494432 C20.6195112,36.5002324 20.3990524,35.9519622 20.3990524,35.3435676 L20.3990524,11.6092919 C20.3990524,10.9950703 20.6493815,10.4555405 21.0916209,10.0328162 C21.5325387,9.61088649 22.0805137,9.38787027 22.6903441,9.38787027 C23.321586,9.38787027 23.8782843,9.63949189 24.3231671,10.0849946 C24.7680499,10.5307622 25.0191721,11.0888324 25.0191721,11.7213297 L25.0191721,35.4553405" id="Fill-5"></path>
                            <path d="M52.0087282,28.1101081 C55.9500249,28.1101081 59.146414,31.3131189 59.146414,35.2622541 C59.146414,39.2116541 55.9500249,42.4144 52.0087282,42.4144 L52.0087282,38.8591189 C53.9907431,38.8591189 55.5981895,37.2482108 55.5981895,35.2622541 C55.5981895,33.2762973 53.9907431,31.6653892 52.0087282,31.6653892 L52.0087282,28.1101081 L52.0087282,28.1101081 Z M52.0084638,28.1101081 L52.0087282,28.1101081 L52.0087282,31.6653892 L52.0084638,31.6653892 C50.0261845,31.6653892 48.4187382,33.2762973 48.4187382,35.2622541 C48.4187382,37.2484757 50.0261845,38.8591189 52.0084638,38.8591189 L52.0087282,38.8591189 L52.0087282,42.4144 L52.0084638,42.4144 C48.0669027,42.4144 44.8705137,39.2116541 44.8705137,35.2622541 C44.8705137,31.3131189 48.0669027,28.1101081 52.0084638,28.1101081 L52.0084638,28.1101081 Z" id="Fill-6"></path>
                            <path d="M52.0087282,36.8935568 C52.9053666,36.8935568 53.6365287,36.1604108 53.6365287,35.2622541 C53.6365287,34.3635676 52.9053666,33.6309514 52.0087282,33.6309514 C51.1118254,33.6309514 50.3806633,34.3635676 50.3806633,35.2622541 C50.3806633,36.1604108 51.1118254,36.8935568 52.0087282,36.8935568" id="Fill-7"></path>
                            <path d="M71.1302294,5.19320541 C73.1706633,6.08818378 74.6054963,8.13294054 74.6054963,10.4976541 C74.6054963,19.2554108 74.5113915,28.5452811 74.4669825,37.6764973 L79.2036758,37.6764973 L79.2036758,12.1374324 L79.2026185,12.1374324 L79.2036758,10.4976541 C79.2036758,10.4465351 79.2023541,10.3956811 79.2015611,10.3445622 C79.1198803,7.2324 76.5539401,4.71168108 73.429187,4.71168108 C72.6131721,4.71168108 71.8354863,4.88410811 71.1302294,5.19320541" id="Fill-8"></path>
                            <path d="M68.8315362,0.104886486 L68.8315362,0.104886486 C63.1263042,0.104886486 58.4588678,4.7824 58.4588678,10.4976541 L58.4588678,13.9909568 L63.056783,13.9909568 L63.056783,10.4976541 C63.056783,10.4441514 63.0575761,10.3906486 63.0591621,10.3374108 C63.1331771,5.48243784 66.5724938,1.40775676 71.1304938,0.364189189 C70.3903441,0.194410811 69.6205885,0.104886486 68.8315362,0.104886486" id="Fill-9"></path>
                            <path d="M81.938,35.9164703 L81.938,37.6764973 L71.8561047,37.6764973 L71.8561047,35.9164703 C71.8561047,34.643 72.8957506,33.6015514 74.1661646,33.6015514 L79.6279401,33.6015514 C80.8986185,33.6015514 81.938,34.643 81.938,35.9164703" id="Fill-10"></path>
                            <path d="M70.4881496,35.9164703 L70.4881496,37.6764973 L62.1559152,37.6764973 L62.1559152,35.9164703 C62.1559152,34.643 63.1952968,33.6015514 64.4657107,33.6015514 L68.1783541,33.6015514 C69.4490324,33.6015514 70.4881496,34.643 70.4881496,35.9164703" id="Fill-11"></path>
                            <path d="M88.3680499,47.9071676 C84.1510474,46.6103892 86.103985,41.1660919 89.3429327,43.2958703 C90.6236559,44.1384054 92.1227232,44.4692216 93.7246185,44.4692216 C95.7830274,44.4692216 97.6574564,43.9116811 99.1287681,42.4318811 C100.598229,40.9478432 101.15387,39.0718054 101.15387,37.0066541 L101.15387,23.2585784 C101.15387,22.6353514 101.397062,22.0804595 101.846439,21.6508486 C102.277576,21.2384541 102.810219,21.0059027 103.40789,21.0059027 C104.020893,21.0059027 104.570454,21.2313027 105.003706,21.6656811 C105.436958,22.1000595 105.662439,22.6507135 105.662439,23.2646703 L105.662439,37.0127459 C105.662439,40.0589568 104.78404,42.8310324 102.773476,45.134827 C100.950858,47.2227568 98.0478853,48.5931676 95.9479751,48.8002919 C93.0373367,49.0874054 91.0857207,48.7428162 88.3680499,47.9071676" id="Fill-12"></path>
                            <path d="M4.57518204,35.4553405 C4.57518204,36.1084973 4.29947631,36.6742486 3.79961097,37.0914108 C3.34389027,37.4722865 2.80331671,37.6764973 2.20934663,37.6764973 C1.57255362,37.6764973 1.01374065,37.4195784 0.584982544,36.9494432 C0.175785536,36.5002324 -0.0446733167,35.9519622 -0.0446733167,35.3435676 L-0.0446733167,11.6092919 C-0.0446733167,10.9950703 0.205391521,10.4555405 0.647630923,10.0328162 C1.08854863,9.61088649 1.63652369,9.38787027 2.24661845,9.38787027 C2.87759601,9.38787027 3.43429426,9.63949189 3.87917706,10.0849946 C4.32405985,10.5307622 4.57518204,11.0888324 4.57518204,11.7213297 L4.57518204,35.4553405" id="Fill-13"></path>
                            <path d="M4.19717706,29.0241568 C3.64682294,29.3737784 3.02245387,29.4439676 2.40310723,29.2445243 C1.83795012,29.062827 1.37614963,28.7147946 1.05788529,28.2123459 C0.716887781,27.6736108 0.633885287,27.0630973 0.800418953,26.4483459 C0.959815461,25.8619351 1.30398504,25.382 1.81653865,25.0554216 L14.3300898,17.0761027 C14.8474015,16.7463459 15.4363491,16.6698 16.0295262,16.8170649 C16.6213815,16.9643297 17.1027431,17.3086541 17.4294663,17.8246108 C17.7675561,18.3583135 17.853995,18.9645892 17.716803,19.5793405 C17.579611,20.1943568 17.2428429,20.7052811 16.7107282,21.0448378 L4.19717706,29.0241568" id="Fill-14"></path>
                            <path d="M7.67535162,27.4084811 C7.09565586,27.1097135 6.71950125,26.6048811 6.5780798,25.9689405 C6.44881796,25.3888865 6.5146384,24.8133351 6.78611471,24.2841351 C7.07741646,23.7167946 7.56115711,23.3361838 8.17468828,23.1695838 C8.7601995,23.0104 9.34491771,23.0699946 9.88787032,23.3430703 L18.2668928,33.0961892 C18.6668379,33.5618216 19.1762195,34.0602973 19.3490973,34.6475027 C19.5219751,35.2331189 19.4691072,35.8235027 19.1902294,36.3672703 C18.9013067,36.9293135 18.4233815,37.3104541 17.8246534,37.5030108 C17.2256608,37.6953027 16.6182095,37.6579568 16.0541097,37.3745514 L7.67535162,27.4084811" id="Fill-15"></path>
                        </g>
                    </g>
                </g>
            </g>
        </g>
    </g>
</svg>